# xmcd CD database file
#
# Track frame offsets:
#	150
#	14969
#	29142
#	44476
#	59635
#	76589
#	91100
#	108347
#	121739
#	133127
#	146827
#	160231
#	172144
#	182944
#	197530
#
# Disc length: 2863 seconds
#
# Revision: 0
# Processed by: cddbd v1.5.2PL0 Copyright (c) Steve Scherf et al.
# Submitted via: CD2WAV32(JP) R3.22
#
DISCID=db0b2d0f
DTITLE=美空ひばり - 美空ひばり大全集 ～共に歩んだ20年～
DYEAR=2012
DGENRE=Folk
TTITLE0=さのさ節
TTITLE1=縁かいな
TTITLE2=春雨
TTITLE3=かっぽれ
TTITLE4=槍さび
TTITLE5=奴さん
TTITLE6=都々逸
TTITLE7=相馬盆唄
TTITLE8=斎太郎節
TTITLE9=佐渡おけさ
TTITLE10=串本節
TTITLE11=久保田節
TTITLE12=常磐炭坑節
TTITLE13=稗搗節
TTITLE14=ひばり音頭
EXTD=
EXTT0=
EXTT1=
EXTT2=
EXTT3=
EXTT4=
EXTT5=
EXTT6=
EXTT7=
EXTT8=
EXTT9=
EXTT10=
EXTT11=
EXTT12=
EXTT13=
EXTT14=
PLAYORDER=
